STARTFONT 2.1
FONT -FontForge-A3x5 Pixel-Medium-R-Normal--5-50-75-75-P-42-ISO10646-1
SIZE 5 75 75
FONTBOUNDINGBOX 6 7 0 0
COMMENT "Generated by fontforge, http://fontforge.sourceforge.net"
COMMENT "Copyright (c) 2023 MetalTxus"
STARTPROPERTIES 39
FOUNDRY "FontForge"
FAMILY_NAME "A3x5 Pixel"
WEIGHT_NAME "Medium"
SLANT "R"
SETWIDTH_NAME "Normal"
ADD_STYLE_NAME ""
PIXEL_SIZE 5
POINT_SIZE 50
RESOLUTION_X 75
RESOLUTION_Y 75
SPACING "P"
AVERAGE_WIDTH 42
CHARSET_REGISTRY "ISO10646"
CHARSET_ENCODING "1"
FONTNAME_REGISTRY ""
CHARSET_COLLECTIONS "ISO10646-1"
FONT_NAME "3x5Pixel"
FACE_NAME "A3x5 Pixel"
COPYRIGHT "Copyright (c) 2023 MetalTxus"
FONT_VERSION "v1"
FONT_ASCENT 5
FONT_DESCENT 0
UNDERLINE_POSITION -10
UNDERLINE_THICKNESS 4
CAP_HEIGHT 4
DEFAULT_CHAR 0
RAW_ASCENT 1000
RAW_DESCENT 0
NORM_SPACE 1
RELATIVE_WEIGHT 50
RELATIVE_SETWIDTH 50
SUPERSCRIPT_X 0
SUPERSCRIPT_Y 2
SUPERSCRIPT_SIZE 2
SUBSCRIPT_X 0
SUBSCRIPT_Y 0
SUBSCRIPT_SIZE 2
AVG_LOWERCASE_WIDTH 30
AVG_UPPERCASE_WIDTH 52
ENDPROPERTIES
CHARS 68
STARTCHAR .notdef
ENCODING 0
SWIDTH 200 0
DWIDTH 1 0
BBX 1 1 0 0
BITMAP
00
ENDCHAR
STARTCHAR space
ENCODING 32
SWIDTH 200 0
DWIDTH 1 0
BBX 1 1 0 0
BITMAP
00
ENDCHAR
STARTCHAR exclam
ENCODING 33
SWIDTH 400 0
DWIDTH 2 0
BBX 1 5 0 0
BITMAP
80
80
80
00
80
ENDCHAR
STARTCHAR quotedbl
ENCODING 34
SWIDTH 800 0
DWIDTH 4 0
BBX 3 2 0 5
BITMAP
A0
A0
ENDCHAR
STARTCHAR numbersign
ENCODING 35
SWIDTH 1200 0
DWIDTH 6 0
BBX 5 5 0 0
BITMAP
50
F8
50
F8
50
ENDCHAR
STARTCHAR dollar
ENCODING 36
SWIDTH 1200 0
DWIDTH 6 0
BBX 5 5 0 0
BITMAP
F8
A0
F8
28
F8
ENDCHAR
STARTCHAR percent
ENCODING 37
SWIDTH 1200 0
DWIDTH 6 0
BBX 5 5 0 0
BITMAP
88
10
20
40
88
ENDCHAR
STARTCHAR ampersand
ENCODING 38
SWIDTH 1200 0
DWIDTH 6 0
BBX 5 5 0 0
BITMAP
70
58
F0
88
F8
ENDCHAR
STARTCHAR quotesingle
ENCODING 39
SWIDTH 400 0
DWIDTH 2 0
BBX 1 2 0 3
BITMAP
80
80
ENDCHAR
STARTCHAR parenleft
ENCODING 40
SWIDTH 600 0
DWIDTH 3 0
BBX 2 5 0 0
BITMAP
40
80
80
80
40
ENDCHAR
STARTCHAR parenright
ENCODING 41
SWIDTH 600 0
DWIDTH 3 0
BBX 2 5 0 0
BITMAP
80
40
40
40
80
ENDCHAR
STARTCHAR asterisk
ENCODING 42
SWIDTH 800 0
DWIDTH 4 0
BBX 3 3 0 1
BITMAP
A0
40
A0
ENDCHAR
STARTCHAR plus
ENCODING 43
SWIDTH 800 0
DWIDTH 4 0
BBX 3 3 0 1
BITMAP
40
E0
40
ENDCHAR
STARTCHAR comma
ENCODING 44
SWIDTH 400 0
DWIDTH 2 0
BBX 1 2 0 0
BITMAP
80
80
ENDCHAR
STARTCHAR hyphen
ENCODING 45
SWIDTH 800 0
DWIDTH 4 0
BBX 3 1 0 2
BITMAP
E0
ENDCHAR
STARTCHAR period
ENCODING 46
SWIDTH 400 0
DWIDTH 2 0
BBX 1 1 0 0
BITMAP
80
ENDCHAR
STARTCHAR slash
ENCODING 47
SWIDTH 1200 0
DWIDTH 6 0
BBX 5 5 0 0
BITMAP
08
10
20
40
80
ENDCHAR
STARTCHAR zero
ENCODING 48
SWIDTH 800 0
DWIDTH 4 0
BBX 3 5 0 0
BITMAP
E0
A0
A0
A0
E0
ENDCHAR
STARTCHAR one
ENCODING 49
SWIDTH 800 0
DWIDTH 4 0
BBX 3 5 0 0
BITMAP
40
C0
40
40
E0
ENDCHAR
STARTCHAR two
ENCODING 50
SWIDTH 800 0
DWIDTH 4 0
BBX 3 5 0 0
BITMAP
E0
20
E0
80
E0
ENDCHAR
STARTCHAR three
ENCODING 51
SWIDTH 800 0
DWIDTH 4 0
BBX 3 5 0 0
BITMAP
E0
20
E0
20
E0
ENDCHAR
STARTCHAR four
ENCODING 52
SWIDTH 800 0
DWIDTH 4 0
BBX 3 5 0 0
BITMAP
A0
A0
E0
20
20
ENDCHAR
STARTCHAR five
ENCODING 53
SWIDTH 800 0
DWIDTH 4 0
BBX 3 5 0 0
BITMAP
E0
80
E0
20
E0
ENDCHAR
STARTCHAR six
ENCODING 54
SWIDTH 800 0
DWIDTH 4 0
BBX 3 5 0 0
BITMAP
E0
80
E0
A0
E0
ENDCHAR
STARTCHAR seven
ENCODING 55
SWIDTH 800 0
DWIDTH 4 0
BBX 3 5 0 0
BITMAP
E0
20
20
20
20
ENDCHAR
STARTCHAR eight
ENCODING 56
SWIDTH 800 0
DWIDTH 4 0
BBX 3 5 0 0
BITMAP
E0
A0
E0
A0
E0
ENDCHAR
STARTCHAR nine
ENCODING 57
SWIDTH 800 0
DWIDTH 4 0
BBX 3 5 0 0
BITMAP
E0
A0
E0
20
E0
ENDCHAR
STARTCHAR colon
ENCODING 58
SWIDTH 400 0
DWIDTH 2 0
BBX 1 3 0 1
BITMAP
80
00
80
ENDCHAR
STARTCHAR semicolon
ENCODING 59
SWIDTH 400 0
DWIDTH 2 0
BBX 1 4 0 0
BITMAP
80
00
80
80
ENDCHAR
STARTCHAR less
ENCODING 60
SWIDTH 800 0
DWIDTH 4 0
BBX 3 5 0 0
BITMAP
20
40
80
40
20
ENDCHAR
STARTCHAR equal
ENCODING 61
SWIDTH 800 0
DWIDTH 4 0
BBX 3 3 0 1
BITMAP
E0
00
E0
ENDCHAR
STARTCHAR greater
ENCODING 62
SWIDTH 800 0
DWIDTH 4 0
BBX 3 5 0 0
BITMAP
80
40
20
40
80
ENDCHAR
STARTCHAR question
ENCODING 63
SWIDTH 1200 0
DWIDTH 6 0
BBX 5 5 0 0
BITMAP
F8
88
38
00
20
ENDCHAR
STARTCHAR at
ENCODING 64
SWIDTH 1200 0
DWIDTH 6 0
BBX 5 5 0 0
BITMAP
F8
88
B8
80
F8
ENDCHAR
STARTCHAR A
ENCODING 65
SWIDTH 800 0
DWIDTH 4 0
BBX 3 5 0 0
BITMAP
E0
A0
E0
A0
A0
ENDCHAR
STARTCHAR B
ENCODING 66
SWIDTH 1200 0
DWIDTH 6 0
BBX 5 5 0 0
BITMAP
F0
88
F0
88
F0
ENDCHAR
STARTCHAR C
ENCODING 67
SWIDTH 1200 0
DWIDTH 6 0
BBX 5 5 0 0
BITMAP
F8
80
80
80
F8
ENDCHAR
STARTCHAR D
ENCODING 68
SWIDTH 800 0
DWIDTH 4 0
BBX 3 5 0 0
BITMAP
C0
A0
A0
A0
C0
ENDCHAR
STARTCHAR E
ENCODING 69
SWIDTH 800 0
DWIDTH 4 0
BBX 3 5 0 0
BITMAP
E0
80
C0
80
E0
ENDCHAR
STARTCHAR F
ENCODING 70
SWIDTH 800 0
DWIDTH 4 0
BBX 3 5 0 0
BITMAP
E0
80
C0
80
80
ENDCHAR
STARTCHAR G
ENCODING 71
SWIDTH 1200 0
DWIDTH 6 0
BBX 4 5 0 0
BITMAP
F0
80
B0
90
F0
ENDCHAR
STARTCHAR H
ENCODING 72
SWIDTH 1200 0
DWIDTH 6 0
BBX 3 5 0 0
BITMAP
A0
A0
E0
A0
A0
ENDCHAR
STARTCHAR I
ENCODING 73
SWIDTH 800 0
DWIDTH 4 0
BBX 3 5 0 0
BITMAP
E0
40
40
40
E0
ENDCHAR
STARTCHAR J
ENCODING 74
SWIDTH 1200 0
DWIDTH 6 0
BBX 3 5 0 0
BITMAP
20
20
20
20
E0
ENDCHAR
STARTCHAR K
ENCODING 75
SWIDTH 1200 0
DWIDTH 6 0
BBX 5 5 0 0
BITMAP
88
90
E0
90
88
ENDCHAR
STARTCHAR L
ENCODING 76
SWIDTH 1200 0
DWIDTH 6 0
BBX 5 5 0 0
BITMAP
80
80
80
80
F8
ENDCHAR
STARTCHAR M
ENCODING 77
SWIDTH 1000 0
DWIDTH 5 0
BBX 4 5 0 0
BITMAP
90
F0
F0
90
90
ENDCHAR
STARTCHAR N
ENCODING 78
SWIDTH 1200 0
DWIDTH 6 0
BBX 5 5 0 0
BITMAP
88
C8
A8
98
88
ENDCHAR
STARTCHAR O
ENCODING 79
SWIDTH 800 0
DWIDTH 4 0
BBX 3 5 0 0
BITMAP
E0
A0
A0
A0
E0
ENDCHAR
STARTCHAR P
ENCODING 80
SWIDTH 1200 0
DWIDTH 6 0
BBX 5 5 0 0
BITMAP
F8
88
F8
80
80
ENDCHAR
STARTCHAR Q
ENCODING 81
SWIDTH 1400 0
DWIDTH 7 0
BBX 6 5 0 0
BITMAP
F8
88
9C
88
F8
ENDCHAR
STARTCHAR R
ENCODING 82
SWIDTH 800 0
DWIDTH 4 0
BBX 3 5 0 0
BITMAP
C0
A0
C0
A0
A0
ENDCHAR
STARTCHAR S
ENCODING 83
SWIDTH 800 0
DWIDTH 4 0
BBX 3 5 0 0
BITMAP
E0
80
E0
20
E0
ENDCHAR
STARTCHAR T
ENCODING 84
SWIDTH 800 0
DWIDTH 4 0
BBX 3 5 0 0
BITMAP
E0
40
40
40
40
ENDCHAR
STARTCHAR U
ENCODING 85
SWIDTH 800 0
DWIDTH 4 0
BBX 3 5 0 0
BITMAP
A0
A0
A0
A0
E0
ENDCHAR
STARTCHAR V
ENCODING 86
SWIDTH 1200 0
DWIDTH 6 0
BBX 5 5 0 0
BITMAP
88
88
88
50
20
ENDCHAR
STARTCHAR W
ENCODING 87
SWIDTH 1200 0
DWIDTH 6 0
BBX 5 5 0 0
BITMAP
88
88
88
A8
D8
ENDCHAR
STARTCHAR X
ENCODING 88
SWIDTH 1200 0
DWIDTH 6 0
BBX 5 5 0 0
BITMAP
88
50
20
50
88
ENDCHAR
STARTCHAR Y
ENCODING 89
SWIDTH 1200 0
DWIDTH 6 0
BBX 5 5 0 0
BITMAP
88
88
50
20
20
ENDCHAR
STARTCHAR Z
ENCODING 90
SWIDTH 1200 0
DWIDTH 6 0
BBX 5 5 0 0
BITMAP
F8
10
20
40
F8
ENDCHAR
STARTCHAR bracketleft
ENCODING 91
SWIDTH 600 0
DWIDTH 3 0
BBX 2 5 0 0
BITMAP
C0
80
80
80
C0
ENDCHAR
STARTCHAR backslash
ENCODING 92
SWIDTH 1200 0
DWIDTH 6 0
BBX 5 5 0 0
BITMAP
80
40
20
10
08
ENDCHAR
STARTCHAR bracketright
ENCODING 93
SWIDTH 600 0
DWIDTH 3 0
BBX 2 5 0 0
BITMAP
C0
40
40
40
C0
ENDCHAR
STARTCHAR asciicircum
ENCODING 94
SWIDTH 800 0
DWIDTH 4 0
BBX 3 2 0 3
BITMAP
40
A0
ENDCHAR
STARTCHAR underscore
ENCODING 95
SWIDTH 1200 0
DWIDTH 6 0
BBX 5 1 0 0
BITMAP
F8
ENDCHAR
STARTCHAR degree
ENCODING 176
SWIDTH 400 0
DWIDTH 2 0
BBX 1 1 0 4
BITMAP
80
ENDCHAR
STARTCHAR ordmasculine
ENCODING 186
SWIDTH 600 0
DWIDTH 3 0
BBX 1 1 0 0
BITMAP
00
ENDCHAR
STARTCHAR .null
ENCODING -1
SWIDTH 0 0
DWIDTH 0 0
BBX 1 1 0 0
BITMAP
00
ENDCHAR
STARTCHAR nonmarkingreturn
ENCODING -1
SWIDTH 325 0
DWIDTH 2 0
BBX 1 1 0 0
BITMAP
00
ENDCHAR
ENDFONT
